<?xml version="1.0" encoding="utf-8"?>
<!-- Generator: Adobe Illustrator 27.1.1, SVG Export Plug-In . SVG Version: 6.00 Build 0)  -->
<svg version="1.1" id="Capa_1" xmlns="http://www.w3.org/2000/svg" xmlns:xlink="http://www.w3.org/1999/xlink" x="0px" y="0px"
	 viewBox="0 0 323 111" style="enable-background:new 0 0 323 111;" xml:space="preserve">
<style type="text/css">
	.st0{fill:#111111;}
</style>
<g id="SvgjsG1767" transform="matrix(1,0,0,1,0,0)">
	<path class="st0" d="M0,0h103v111H0l0,0V0z M4,4v103h95V4H4z"/>
</g>
<g id="SvgjsG1768" transform="matrix(1.9094382862871295,0,0,1.9094382862871295,15.968905219226492,-18.995098540113325)">
	<path class="st0" d="M20.2,60.7c-7.4,0-14.5-2.3-19.7-7L7,46c4.1,3.3,8.8,5,13.6,5c3.1,0,4.8-1.1,4.8-2.9v-0.1c0-1.7-1.4-2.7-7.1-4
		C9.4,42,2.5,39.5,2.5,30.8v-0.1c0-7.8,6.2-13.4,16.3-13.4c7.1,0,12.7,1.9,17.3,5.6l-5.8,8.2c-3.8-2.7-8-4.1-11.8-4.1
		c-2.8,0-4.2,1.2-4.2,2.7v0.1c0,1.9,1.4,2.8,7.3,4.1c9.7,2.1,15.7,5.2,15.7,13.1V47C37.2,55.6,30.4,60.7,20.2,60.7z"/>
</g>
<g id="SvgjsG1769" transform="matrix(1.025851421381667,0,0,1.025851421381667,122.63069384050074,10.920805431740519)">
	<path class="st0" d="M13.5,40.5c-5,0-9.7-1.6-13.1-4.6l4.3-5.2c2.8,2.2,5.8,3.4,9.1,3.4c2.1,0,3.2-0.7,3.2-1.9V32
		c0-1.2-0.9-1.8-4.7-2.7c-6-1.4-10.6-3-10.6-8.8v-0.1c0-5.2,4.1-9,10.8-9c4.8,0,8.5,1.3,11.5,3.7l-3.9,5.5c-2.6-1.8-5.4-2.8-7.8-2.8
		c-1.9,0-2.8,0.8-2.8,1.8v0.1c0,1.3,1,1.8,4.8,2.7c6.4,1.4,10.4,3.5,10.4,8.7v0.1C24.8,37.1,20.3,40.5,13.5,40.5z M28.1,40V10.8h7.6
		v10.5c1.4-1.8,3.4-3.4,6.5-3.4c4.6,0,7.4,3,7.4,8V40H42V28.3c0-2.4-1.2-3.6-3-3.6c-1.8,0-3.2,1.3-3.2,3.6V40H28.1z M64.5,40.5
		c-6.9,0-11.9-5.1-11.9-11.2v-0.1c0-6.2,5-11.3,12-11.3c6.9,0,11.9,5.1,11.9,11.2v0.1C76.5,35.4,71.5,40.5,64.5,40.5z M64.6,34.1
		c2.8,0,4.5-2.2,4.5-4.8v-0.1c0-2.6-1.9-4.9-4.6-4.9c-2.8,0-4.5,2.2-4.5,4.8v0.1C60,31.8,61.9,34.1,64.6,34.1z M79.7,46.4v-28h7.6
		v2.9c1.5-1.8,3.3-3.4,6.6-3.4c5.2,0,9.6,4.3,9.6,11.2v0.1c0,7-4.4,11.3-9.6,11.3c-3.3,0-5.2-1.5-6.6-3.1v9
		C87.3,46.4,79.7,46.4,79.7,46.4z M91.6,34.1c2.5,0,4.4-2,4.4-4.9v-0.1c0-2.8-2-4.9-4.4-4.9c-2.4,0-4.4,2-4.4,4.9v0.1
		C87.2,32.1,89.1,34.1,91.6,34.1z M107.2,40V12h7.2L126,26.8V12h7.7v28h-6.8l-12-15.4V40H107.2L107.2,40z M149.2,40.5
		c-6.9,0-11.9-5.1-11.9-11.2v-0.1c0-6.2,5-11.3,12-11.3c6.9,0,11.9,5.1,11.9,11.2v0.1C161.2,35.4,156.2,40.5,149.2,40.5z
		 M149.3,34.1c2.8,0,4.5-2.2,4.5-4.8v-0.1c0-2.6-1.9-4.9-4.6-4.9c-2.8,0-4.5,2.2-4.5,4.8v0.1C144.7,31.8,146.6,34.1,149.3,34.1z
		 M168.4,40.2l-6.6-21.8h7.4l2.8,10.9l3.3-11h6.3l3.4,11l2.9-11h7.3l-6.7,21.8h-6.6l-3.5-11.2L175,40.2
		C175,40.2,168.4,40.2,168.4,40.2z"/>
</g>
<g id="SvgjsG1770" transform="matrix(1,0,0,1,120.90000009536743,68.77999877929688)">
	<path class="st0" d="M3.5,20H2.1V5.6h1.4V20z M5.9,6.8V5.6h10.5v1.2h-4.6V20h-1.4V6.8C10.4,6.8,5.9,6.8,5.9,6.8z M23.9,20h-1.4
		l5.7-14.4h1.5L35.3,20h-1.4l-1.7-4.5h-6.6L23.9,20z M28.9,6.8l-2.8,7.6h5.6L28.9,6.8z M48.8,9.8h-1.4c-0.6-2.5-2.1-3.4-4.5-3.4
		c-3.5,0-5,3-5,6.4c0,3.2,1.2,6.5,5.1,6.5c2.5,0,4-1.7,4.6-4H49c-0.6,2.8-2.4,5.1-6.2,5.1c-4.4,0-6.2-3.5-6.2-7.6
		c0-5.5,2.9-7.6,6.7-7.6C46.2,5.2,48.4,6.8,48.8,9.8z M51.7,20h-1.4L56,5.6h1.5L63,20h-1.4L60,15.5h-6.6L51.7,20z M56.7,6.8
		l-2.8,7.6h5.6L56.7,6.8z M69.9,20H65V5.6h4.9c1.6,0,3.1,0.1,4.4,1.1c1.9,1.4,2.4,4.2,2.4,6.1c0,1.9-0.4,4-1.7,5.5
		C73.7,19.7,71.8,20,69.9,20z M66.3,6.8v12.1h3.3c1.2,0,2.3-0.1,3.4-0.7c1.9-1,2.4-3.4,2.4-5.4c0-2.1-0.5-4.4-2.5-5.5
		c-0.9-0.5-2.1-0.5-3.3-0.5C69.6,6.8,66.3,6.8,66.3,6.8z M89.2,20h-9.8V5.6H89v1.2h-8.2V12h7.4v1.2h-7.4v5.7h8.4V20z M92.9,20h-1.4
		V5.6h2.1l4.7,12.7h0l4.6-12.7h2.1V20h-1.4V7.2h0L99,20h-1.3L93,7.2h0V20z M108.5,5.6l4.2,6.9l4.3-6.9h1.6l-5.2,8.1V20h-1.4v-6.2
		l-5.1-8.2C106.9,5.6,108.5,5.6,108.5,5.6z"/>
</g>
</svg>
